HIERARCHY
ROOT joint_0
{
	OFFSET 0.000000 0.000000 0.000000
	CHANNELS 6 Xposition Yposition Zposition Zrotation Yrotation Xrotation 
	JOINT joint_1
	{
		OFFSET 4.520508 -1.939880 86.268921
		CHANNELS 3 Zrotation Yrotation Xrotation
		JOINT joint_2
		{
			OFFSET -4.459717 -0.438538 78.934082
			CHANNELS 3 Zrotation Yrotation Xrotation
			JOINT joint_3
			{
				OFFSET -5.197754 -0.781128 78.796997
				CHANNELS 3 Zrotation Yrotation Xrotation
				JOINT joint_4
				{
					OFFSET 2.952026 -3.710571 109.812988
					CHANNELS 3 Zrotation Yrotation Xrotation
					JOINT joint_5
					{
						OFFSET 24.716797 -5.488037 87.903931
						CHANNELS 3 Zrotation Yrotation Xrotation
						End Site
						{
							OFFSET 0.000000 0.000000 0.000000
						}
					}
				}
				JOINT joint_6
				{
					OFFSET -3.154419 -25.484680 60.934937
					CHANNELS 3 Zrotation Yrotation Xrotation
					JOINT joint_7
					{
						OFFSET -28.997192 -144.472229 -32.671997
						CHANNELS 3 Zrotation Yrotation Xrotation
						JOINT joint_8
						{
							OFFSET 19.867676 -18.614380 -249.897949
							CHANNELS 3 Zrotation Yrotation Xrotation
							JOINT joint_9
							{
								OFFSET 5.281982 -13.816650 -264.993042
								CHANNELS 3 Zrotation Yrotation Xrotation
								End Site
								{
									OFFSET 0.000000 0.000000 0.000000
								}
							}
						}
					}
				}
				JOINT joint_10
				{
					OFFSET 6.494995 21.336792 62.257935
					CHANNELS 3 Zrotation Yrotation Xrotation
					JOINT joint_11
					{
						OFFSET 31.106567 145.200745 -27.007935
						CHANNELS 3 Zrotation Yrotation Xrotation
						JOINT joint_12
						{
							OFFSET 29.119141 24.684326 -248.460083
							CHANNELS 3 Zrotation Yrotation Xrotation
							JOINT joint_13
							{
								OFFSET 21.220093 31.248413 -262.703979
								CHANNELS 3 Zrotation Yrotation Xrotation
								End Site
								{
									OFFSET 0.000000 0.000000 0.000000
								}
							}
						}
					}
				}
			}
		}
	}
	JOINT joint_14
	{
		OFFSET -15.458496 -88.861694 -109.593018
		CHANNELS 3 Zrotation Yrotation Xrotation
		JOINT joint_15
		{
			OFFSET -6.193359 6.837952 -506.710999
			CHANNELS 3 Zrotation Yrotation Xrotation
			JOINT joint_16
			{
				OFFSET -35.096680 13.289795 -435.677025
				CHANNELS 3 Zrotation Yrotation Xrotation
				JOINT joint_17
				{
					OFFSET 158.491211 -33.916565 -71.771002
					CHANNELS 3 Zrotation Yrotation Xrotation
					End Site
					{
						OFFSET 0.000000 0.000000 0.000000
					}
				}
			}
		}
	}
	JOINT joint_18
	{
		OFFSET 23.116943 86.574158 -110.082031
		CHANNELS 3 Zrotation Yrotation Xrotation
		JOINT joint_19
		{
			OFFSET -6.125854 -0.283569 -506.757019
			CHANNELS 3 Zrotation Yrotation Xrotation
			JOINT joint_20
			{
				OFFSET -63.240234 11.589966 -432.537994
				CHANNELS 3 Zrotation Yrotation Xrotation
				JOINT joint_21
				{
					OFFSET 156.074219 -41.487305 -73.077999
					CHANNELS 3 Zrotation Yrotation Xrotation
					End Site
					{
						OFFSET 0.000000 0.000000 0.000000
					}
				}
			}
		}
	}
}
MOTION
Frames: 13
Frame Time: 0.016667
-1070.461914 984.505859 1140.078003 -0.067546 -0.135423 -0.036323 -0.029275 0.073598 0.071239 -0.034947 -0.009419 -0.020988 -0.032250 0.017654 0.015830 -0.000459 0.003653 0.002443 0.000000 0.000000 0.000000 0.088033 0.070827 -0.145425 0.016643 0.013126 0.222477 0.003642 -0.081018 -0.029246 0.000000 0.000000 0.000000 0.169433 -0.015018 0.142518 -0.017866 0.015624 -0.163121 0.000324 -0.002123 0.007137 0.000000 0.000000 0.000000 0.024872 0.206569 0.009365 0.022352 0.027766 0.018205 0.021475 -0.053749 -0.001778 0.000000 0.000000 0.000000 0.048766 0.230311 0.077811 0.051309 0.016775 -0.122612 0.032099 -0.112944 -0.014993 0.000000 0.000000 0.000000 
-1070.370483 984.575317 1140.064941 -0.078036 -0.144041 -0.039118 -0.017826 0.089583 0.085162 -0.024514 -0.011640 -0.023268 -0.021566 0.019085 0.016805 -0.000087 0.004175 0.001238 0.000000 0.000000 0.000000 0.092262 0.075339 -0.152301 0.017209 0.016376 0.226016 0.002839 -0.066996 -0.032835 0.000000 0.000000 0.000000 0.177438 -0.026694 0.148193 -0.021352 0.008008 -0.186378 -0.001404 -0.012810 0.001489 0.000000 0.000000 0.000000 0.028930 0.217579 0.006286 0.026269 0.034262 0.021686 0.025260 -0.059508 -0.001296 0.000000 0.000000 0.000000 0.053455 0.239264 0.074717 0.055908 0.032819 -0.118645 0.036728 -0.129294 -0.017172 0.000000 0.000000 0.000000 
-1070.292114 984.641846 1140.055054 -0.086768 -0.153090 -0.039843 -0.002591 0.111577 0.093125 -0.009794 -0.018680 -0.021567 -0.006904 0.024256 0.015799 0.000162 0.003298 0.000155 0.000000 0.000000 0.000000 0.091055 0.077992 -0.153934 0.017992 0.018029 0.227125 0.001553 -0.044335 -0.038076 0.000000 0.000000 0.000000 0.180532 -0.042077 0.154400 -0.024789 -0.002662 -0.207836 -0.003758 -0.025412 -0.009096 0.000000 0.000000 0.000000 0.032340 0.228053 0.001423 0.029540 0.041615 0.024675 0.028360 -0.065097 -0.001088 0.000000 0.000000 0.000000 0.057582 0.246366 0.069603 0.059920 0.051625 -0.114747 0.040722 -0.145031 -0.019485 0.000000 0.000000 0.000000 
-1070.201782 984.701294 1140.046021 -0.091907 -0.161082 -0.038715 0.011197 0.123912 0.098014 0.003636 -0.021558 -0.021511 0.006542 0.027066 0.015232 0.000687 0.006644 -0.000969 0.000000 0.000000 0.000000 0.089293 0.083329 -0.155287 0.018972 0.021556 0.231700 0.000254 -0.021843 -0.044389 0.000000 0.000000 0.000000 0.185356 -0.052601 0.159425 -0.027398 -0.009795 -0.225095 -0.005990 -0.037484 -0.018957 0.000000 0.000000 0.000000 0.034784 0.239741 -0.003506 0.031828 0.046083 0.024538 0.030357 -0.070491 -0.001338 0.000000 0.000000 0.000000 0.060337 0.254727 0.064823 0.062613 0.065698 -0.114651 0.043039 -0.157052 -0.021595 0.000000 0.000000 0.000000 
-1070.086548 984.746582 1140.038940 -0.093449 -0.166663 -0.035514 0.021746 0.123300 0.096465 0.014361 -0.023994 -0.019779 0.017113 0.028309 0.014080 0.001533 0.016943 -0.001691 0.000000 0.000000 0.000000 0.091343 0.093838 -0.157868 0.020346 0.029303 0.243644 -0.001050 -0.000155 -0.053064 0.000000 0.000000 0.000000 0.196851 -0.054431 0.161139 -0.028570 -0.011630 -0.234354 -0.008214 -0.049864 -0.028253 0.000000 0.000000 0.000000 0.035656 0.253159 -0.007633 0.032512 0.045140 0.019987 0.030631 -0.075122 -0.002205 0.000000 0.000000 0.000000 0.061984 0.265603 0.062513 0.064329 0.070513 -0.122371 0.043533 -0.162868 -0.022910 0.000000 0.000000 0.000000 
-1069.960205 984.784851 1140.032959 -0.091462 -0.171701 -0.030311 0.030937 0.115519 0.090798 0.024018 -0.025045 -0.017852 0.026578 0.028960 0.012838 0.002825 0.030078 -0.003369 0.000000 0.000000 0.000000 0.092069 0.106798 -0.160266 0.021901 0.038544 0.258840 -0.002320 0.020521 -0.062696 0.000000 0.000000 0.000000 0.209634 -0.051841 0.161104 -0.028858 -0.010530 -0.238787 -0.010317 -0.061139 -0.037687 0.000000 0.000000 0.000000 0.035546 0.268326 -0.012135 0.032183 0.041491 0.012621 0.029786 -0.080016 -0.003635 0.000000 0.000000 0.000000 0.062418 0.278399 0.060466 0.064889 0.070443 -0.134180 0.042464 -0.164715 -0.023902 0.000000 0.000000 0.000000 
-1069.844971 984.833191 1140.026978 -0.083065 -0.177551 -0.025763 0.035659 0.107903 0.088894 0.028942 -0.025323 -0.016911 0.031353 0.028764 0.011514 0.004469 0.042053 -0.006555 0.000000 0.000000 0.000000 0.091629 0.117764 -0.163221 0.022709 0.046554 0.269205 -0.002958 0.030463 -0.068703 0.000000 0.000000 0.000000 0.223730 -0.046704 0.160190 -0.029265 -0.006930 -0.245118 -0.011225 -0.067030 -0.040247 0.000000 0.000000 0.000000 0.033381 0.283391 -0.016508 0.029825 0.039784 0.005557 0.026940 -0.085646 -0.006129 0.000000 0.000000 0.000000 0.060934 0.289171 0.058047 0.063510 0.073841 -0.144954 0.039636 -0.166747 -0.025766 0.000000 0.000000 0.000000 
-1069.743530 984.897583 1140.020020 -0.065041 -0.184653 -0.021669 0.033661 0.101796 0.091148 0.026891 -0.027043 -0.016014 0.029270 0.030679 0.011373 0.007126 0.051503 -0.013907 0.000000 0.000000 0.000000 0.088832 0.125477 -0.168651 0.021944 0.052528 0.270152 -0.002447 0.021974 -0.065258 0.000000 0.000000 0.000000 0.239638 -0.039419 0.157512 -0.030230 -0.000971 -0.256253 -0.010073 -0.063376 -0.031361 0.000000 0.000000 0.000000 0.028146 0.298889 -0.021549 0.024403 0.040355 -0.000709 0.021104 -0.093601 -0.010474 0.000000 0.000000 0.000000 0.056843 0.296875 0.054135 0.059477 0.083080 -0.153780 0.034457 -0.169787 -0.028999 0.000000 0.000000 0.000000 
-1069.652100 984.972046 1140.012939 -0.040727 -0.192610 -0.018084 0.027246 0.095153 0.097553 0.020084 -0.026461 -0.017250 0.022552 0.030715 0.011565 0.009836 0.059379 -0.021797 0.000000 0.000000 0.000000 0.084595 0.131303 -0.174295 0.020389 0.057436 0.266053 -0.001305 0.002882 -0.057929 0.000000 0.000000 0.000000 0.257138 -0.029443 0.154105 -0.031284 0.007617 -0.269287 -0.007736 -0.054165 -0.015995 0.000000 0.000000 0.000000 0.020919 0.314209 -0.026538 0.017023 0.043260 -0.006857 0.013305 -0.102590 -0.015929 0.000000 0.000000 0.000000 0.050929 0.302754 0.049787 0.053604 0.095756 -0.161786 0.027583 -0.173012 -0.033075 0.000000 0.000000 0.000000 
-1069.575684 985.048584 1140.005005 -0.015002 -0.201872 -0.015915 0.019957 0.091318 0.104013 0.012433 -0.026019 -0.017625 0.014989 0.030696 0.012604 0.012438 0.065129 -0.029774 0.000000 0.000000 0.000000 0.077342 0.134593 -0.180165 0.019481 0.058708 0.263088 -0.000343 -0.014321 -0.054683 0.000000 0.000000 0.000000 0.268059 -0.018629 0.152399 -0.031830 0.018535 -0.281437 -0.005967 -0.046099 -0.005980 0.000000 0.000000 0.000000 0.013152 0.327507 -0.030336 0.009209 0.051791 -0.012068 0.004976 -0.113059 -0.021941 0.000000 0.000000 0.000000 0.044484 0.307616 0.046652 0.047206 0.111733 -0.169295 0.020225 -0.178127 -0.037879 0.000000 0.000000 0.000000 
-1069.521240 985.125244 1139.995972 0.011686 -0.213303 -0.016249 0.011743 0.093346 0.114348 0.003401 -0.026556 -0.021498 0.006330 0.031011 0.014247 0.013869 0.065243 -0.034839 0.000000 0.000000 0.000000 0.069090 0.133738 -0.185359 0.019958 0.054603 0.264249 0.000114 -0.025150 -0.060073 0.000000 0.000000 0.000000 0.270725 -0.007074 0.155509 -0.031612 0.032635 -0.292333 -0.005629 -0.042728 -0.006764 0.000000 0.000000 0.000000 0.004981 0.337395 -0.031995 0.001168 0.069700 -0.015406 -0.003734 -0.125931 -0.028640 0.000000 0.000000 0.000000 0.037671 0.311765 0.047288 0.040503 0.131539 -0.178501 0.012272 -0.184945 -0.043416 0.000000 0.000000 0.000000 
-1069.480713 985.204041 1139.987061 0.039576 -0.225597 -0.018195 0.001956 0.095680 0.125216 -0.007207 -0.023841 -0.025203 -0.003870 0.030116 0.017269 0.015084 0.062053 -0.039866 0.000000 0.000000 0.000000 0.060217 0.129913 -0.190473 0.021009 0.047175 0.265901 0.000383 -0.033928 -0.069514 0.000000 0.000000 0.000000 0.270425 0.005518 0.159609 -0.030959 0.048423 -0.302322 -0.005849 -0.040601 -0.012616 0.000000 0.000000 0.000000 -0.003646 0.344812 -0.032255 -0.007215 0.093240 -0.017844 -0.012879 -0.139569 -0.035699 0.000000 0.000000 0.000000 0.030218 0.314513 0.049241 0.033164 0.154593 -0.186907 0.003767 -0.193130 -0.049573 0.000000 0.000000 0.000000 
-1069.445190 985.293823 1139.974976 0.066230 -0.239008 -0.022029 -0.007244 0.101873 0.138537 -0.017419 -0.024861 -0.029091 -0.013618 0.031158 0.020121 0.015582 0.057719 -0.042599 0.000000 0.000000 0.000000 0.053549 0.125097 -0.194992 0.022128 0.039449 0.267111 0.000510 -0.040113 -0.079331 0.000000 0.000000 0.000000 0.270937 0.017090 0.163148 -0.030428 0.062832 -0.312008 -0.006019 -0.038441 -0.017902 0.000000 0.000000 0.000000 -0.011793 0.353372 -0.031182 -0.015132 0.115967 -0.019989 -0.021521 -0.152718 -0.042426 0.000000 0.000000 0.000000 0.022977 0.316612 0.048666 0.025907 0.181759 -0.187337 -0.003622 -0.205730 -0.056382 0.000000 0.000000 0.000000 
